<?xml version="1.0" encoding="utf-8"?>
<!-- Generator: Adobe Illustrator 26.5.0, SVG Export Plug-In . SVG Version: 6.00 Build 0)  -->
<svg version="1.1" xmlns="http://www.w3.org/2000/svg" xmlns:xlink="http://www.w3.org/1999/xlink" x="0px" y="0px"
	 viewBox="0 0 2130 429" style="enable-background:new 0 0 2130 429;" xml:space="preserve">
<style type="text/css">
	.st0{fill:#FFFFFF;}
	.st1{fill:#FBD000;}
	.st2{fill:#00549F;}
	.st3{fill:#D21A3A;}
</style>
<g id="Capa_2">
</g>
<g id="Layer_1">
	<g>
		<g>
			<path class="st0" d="M340.5,146.6l-27.1,10.3l-2.6,7.3l-6.1,4c-1.7-22.5-2.8-31.4-3.3-31.4l9.8-0.1l18-22L303,125.8l-2.4,7.7
				L274.9,153c0.6,4.8,2,19.5,1.1,33.8l5.7-3.8c2.5,107.2-46.6,147.6-46.6,147.6c-12.4-5.7-15.6-9.9-15.6-9.9
				c44.7-49.8,42.7-121.8,42.6-124.4l-4.7,3.1c0,0,1.9-22.8,0.7-33.6l-8.2,6.3c-0.2-7.4-0.6-13.5-1.1-17.8c5,0.3,10.1-0.4,14.3-3.5
				c4.5-3.2,6.8-12.8,7.6-16.8c0.7-4.1-0.1-5.5-2.6-7.1c-2.5-1.6-7.7-6.3-9.8-8.4c0,0,4.3-1.8,14.2,2.9c10.8,5.1,18.9,2.6,28.1-11
				l-11,1.6l1-7.6c0.2,0.1,0.4,0.2,0.6,0.3c1.5,1.1,6.7,3,9.2,3.5c2.5,0.5,2.4,0.1,4,1.1c1.6,0.9,2.9,1.3,3.7,0.9c0,0,6.2,3.5,8.6,0
				c0,0,2.4,1.4,3.6,1.9c1.9,0.7,4.8,1.7,5.8,1.6c1-0.2,3.3,0.8,3.7,1c3.9,2,6.3,0.9,6.8,0c0.6-0.9-2.4-4-4.7-5.9
				c-2.3-1.9-4.3-2.3-4.3-2.3c0.8-0.5,0.6-1.3-0.9-3c-1.5-1.8-6.4-4.2-6.4-4.2c0.1-1.4-5.5-4.9-8.8-7.4c-3.4-2.5-2-2.4-5.5-6.1
				c-3.5-3.7-19.7-16.5-27.7-22.2c-8-5.7-30.1-22.6-49-28.6c-18.9-6.1-30-4.7-38,0.3c-8,5-6,11.6-4.6,15.7c1.4,4.1,4.2,9.2,5.8,12.4
				c1.6,3.2,0.3,3.1-0.4,3.6c-0.7,0.5,0.1,1.7-0.7,1.6c-0.7-0.1-1.2,0.8-2.1,1.9c-0.5,0.5-1.8,1-3.6,1.4c-0.4-1.5,0.6-2.6,0.6-2.6
				c-1.3-0.7-3.4-1-3.4-1c0.3-0.5,1.2-0.9,1.2-0.9c-1.4-0.4-4,0.1-4,0.1c0.4-0.7,0.8-0.8,0.8-0.8c-2.4-0.8-4.6,1.2-5.5,2.1
				c-1.1-1.9-2.5-3.3-3.8-4.6c-1.5-1.4-2.2-3.4-3.8-4.9c0,0,1.3-2,0.4-3.9c-0.9-2-3.4-3.5-4.9-3.9c0,0,1.3-0.7,1.1-2.2
				c-0.2-1.5-1.6-2-3.1-1.6c-1.5,0.5-3.2,0.5-4.4,1.5c0,0-1.2,0.1-2.2,0c1.2-4.1,1.8-9.6-5.2-13.9c-8-5-19.1-6.3-38-0.3
				c-18.9,6.1-41,22.9-49,28.6c-8,5.7-24.2,18.6-27.7,22.2c-3.6,3.6-2.2,3.5-5.5,6.1c-3.4,2.5-8.9,6-8.9,7.4c0,0-4.9,2.4-6.4,4.2
				c-1.5,1.8-1.7,2.5-0.9,3c0,0-2,0.4-4.3,2.3c-2.3,1.9-5.3,5-4.7,5.9c0.6,0.9,2.9,2,6.8,0c0.4-0.2,2.7-1.2,3.7-1
				c1,0.2,4-0.9,5.8-1.6c1.2-0.4,3.6-1.9,3.6-1.9c2.5,3.5,8.6,0,8.6,0c0.8,0.4,2.2,0,3.7-0.9c1.6-0.9,1.5-0.6,4-1.1
				c2.5-0.5,7.7-2.4,9.2-3.5c0.2-0.2,0.4-0.3,0.6-0.3l1,7.6l-11-1.6c9.2,13.6,17.3,16.1,28.1,11c10-4.7,14.2-2.9,14.2-2.9
				c-2.1,2.1-7.3,6.8-9.8,8.4c-2.5,1.6-3.3,3-2.6,7.1c0.7,4.1,3.1,13.6,7.6,16.8c4.2,3,9.4,3.8,14.3,3.5c-0.5,4.3-0.9,10.4-1.1,17.8
				l-8.3-6.3c-1.3,10.8,0.7,33.6,0.7,33.6l-4.7-3.1c-0.1,2.6-2.1,74.6,42.6,124.4c0,0-3.2,4.2-15.6,9.9c0,0-49-40.3-46.5-147.6
				l5.7,3.8c-1-14.4,0.5-29.1,1-33.9l-25.7-19.5l-2.4-7.7l-26.2-11.3l18.1,22l9.8,0.1c-0.5,0-1.6,8.9-3.3,31.4l-6.1-4l-2.6-7.3
				L0,146.6L19.2,168l9.5-0.6c0,0-9.8,94.9,22.5,146c26.8,42.5,65.9,42.8,101.5,19c-1.3,4.2-5.6,16.5-17.6,39c0,0,6.9,0,14.4,1.3
				c0,0-1.5,6.2-2.3,8c-0.8,1.9-0.6,5,3,5.2c3.7,0.1,8.4,0.6,8.4,0.6s-0.7,4.5-0.8,6.8c-0.1,3.2-0.4,4.5,12.3,5.1
				c13.4-0.5,12.5-1.9,12.4-5.1c-0.1-2.4-0.7-6.8-0.7-6.8s4.8-0.5,8.4-0.6c3.7-0.2,3.8-3.3,3-5.2c-0.8-1.9-2.3-8-2.3-8
				c7.4-1.3,14.4-1.3,14.4-1.3c-12-22.6-16.3-34.9-17.6-39c35.6,23.9,74.7,23.6,101.5-19c32.2-51.1,22.5-146,22.5-146l9.5,0.6
				L340.5,146.6z M185.4,109.9c1.1-4.8,1.9-8.8,2.9-8.1c1,0.7,2.7,0.8,3.3-0.1c0.6-0.8,0.8-0.9,1.3-0.1c0.5,0.9,3.5,2.3,5.5-1.1
				c2-3.4,1.4-1.7,2-0.4c0.6,1.3,2.1,1.9,3.8,0.5c1.7-1.4,3.1-2.6,4.3-3.2c1.2-0.6,1.3-0.3,2-1.5c0.7-1.3,1.8-1.8,1.9-2.6
				c0.1-0.8-0.7-1.7,0.5-2.4c1.2-0.6,1.7-1.1,2.8-0.6c1.1,0.5,1.4-0.5,1.9,0.2c0.6,0.7,1.3,0.8,2,0c0.7-0.7,1.2-1.9,2-0.6
				c0.8,1.4,2.6,1.7,3,1c0.4-0.7,0.7-0.7,1.2,0.3c0.5,1.1,2.3,1.9,4.2,1.6c0,0,1.8,2.5,4,2.1c2.2-0.4,3-1.5,3.1-3
				c0.1-1.5-0.7-6.5,0.7-5.4c1.5,1.1,1.4,0.6,1.9-0.3c0.4-0.8,1.1,0.1,1.9-0.1c0.7-0.2,0.6-1.1,1.9,0.1c1.3,1.3,1.4,1.9,2.5,2.2
				c1.2,0.3,1.7,0.6,2.9,1.9c1.3,1.3,2.6,2.7,4.8,1.9c0,0,1.4,1.9,2.9,1.7c0,0,3,3.3,4.8,2.8c0,0,3,1.2,4,1.1c1-0.1,1.2-0.8,1.8-0.5
				c0.6,0.4,0.4-1.2,1.3-0.1c0.9,1.1,2.6,2.9,3.7,2.6c0,0,2.5,2.1,4.4,2.3c1.9,0.3,2.5,0.8,3.1,0.8s0.3-0.6,1.4,0.3
				c1.1,0.9,2.7,1.3,3.8,0.9c1.1-0.5,1.5-0.4,2.4-0.3c0.3,0,0.7,0,1.2,0c-3.1,3.7-7.2,6.6-14.7,4.3c-10-3.1-13-1.6-15.1,0.5
				c-2.1,2.1-6.7,8.2-7.9,12c-1.2,3.8-0.6,6.8,6.8,15.5c0,0-9.7,0.6-22.4-3.5c-12.8-4.1-24.5-5.6-36.4-0.2c-2.1,0.9-4,1.8-5.8,2.7
				c-1.3-1.3-4.6-4.7-5.8-6.3c0,0,0.8-4,0.7-6.3c-0.1-2.6-0.2-3.8-1.1-5.1C185.5,116.4,184.3,114.6,185.4,109.9z M236.4,151.8
				c-5.6,3.6-15.2,7.7-29.3,7.7c-11,0-19.6-2.5-25.6-5.4c2.5-1.5,12.2-7.1,24.5-7.4c14.2-0.4,20.4,1.6,27.2,4
				C234.1,151,235.2,151.4,236.4,151.8z M177.7,131.6c0.1,0,0.2,0.1,0.2,0.1c2.5,1,5.1,0.6,5.1,0.6c0.8,0.5,4.3,3.8,5.6,5.1
				c-3.6,2-6.8,4-9.9,6.6c-0.8-3.1-1.9-8.1-1.5-9.8C177.5,133.2,177.6,132.3,177.7,131.6z M160.1,63.9c1.4,0.9,4.1,2.5,5,4.8
				c0.3,0.7,0.5,1.4,0.7,2c-2-0.5-3.5-0.5-4.7-0.3c-2-3.3-4.3-5.4-6.3-6.8C157,63.3,158.8,63.1,160.1,63.9z M148.2,63
				c0-0.1,0.1-0.1,0.1-0.2c1.7,2.5,5.4,6.9,11.3,8.1c-0.6,0.3-1.1,0.7-1.4,1c-3.2-0.4-6-1-6.7-1.9c-0.9-1.1-1.4-2-2.1-1.9
				c-0.7,0.1,0.1-1.1-0.7-1.6C147.9,66.1,146.6,66.1,148.2,63z M145.7,102.6c0.3,1.7,0.7,3.5,1.6,5.3c-0.2,0.4-0.5,0.8-0.7,1.3
				c-0.5-3.8-2.1-6.3-2.4-6.8C144.8,102.7,145.3,102.7,145.7,102.6z M83.3,136.3c7.4-8.7,8-11.6,6.8-15.5c-1.2-3.8-5.8-9.9-7.9-12
				c-2.1-2.1-5.1-3.6-15.1-0.5c-7.6,2.3-11.6-0.6-14.7-4.3c0.4,0,0.8,0.1,1.1,0c1-0.1,1.4-0.2,2.4,0.3c1,0.4,2.7,0,3.8-0.9
				c1.1-0.9,0.8-0.3,1.4-0.3c0.6,0,1.2-0.6,3.1-0.8c1.9-0.2,4.4-2.3,4.4-2.3c1.1,0.3,2.7-1.6,3.7-2.6c0.9-1.1,0.7,0.5,1.3,0.1
				c0.6-0.3,0.8,0.3,1.8,0.5c1,0.1,4-1.1,4-1.1c1.7,0.5,4.8-2.8,4.8-2.8c1.5,0.1,2.9-1.7,2.9-1.7c2.2,0.8,3.6-0.6,4.8-1.9
				c1.2-1.3,1.7-1.6,2.9-1.9c1.2-0.3,1.3-0.9,2.5-2.2c1.3-1.2,1.1-0.3,1.9-0.1c0.7,0.2,1.4-0.7,1.9,0.1c0.5,0.9,0.4,1.4,1.9,0.3
				c1.5-1.1,0.7,3.9,0.7,5.4c0.1,1.5,0.9,2.6,3.1,3c2.2,0.4,4-2.1,4-2.1c1.9,0.3,3.7-0.5,4.2-1.6c0.5-1.1,0.8-1,1.2-0.3
				c0.4,0.7,2.2,0.4,3-1c0.8-1.4,1.3-0.2,2,0.6c0.7,0.8,1.4,0.7,2,0c0.6-0.7,0.9,0.3,1.9-0.2c1-0.5,1.6-0.1,2.8,0.6
				c1.2,0.6,0.4,1.5,0.4,2.4c0.1,0.8,1.2,1.4,1.9,2.6c0.7,1.2,0.8,0.9,2,1.5c1.2,0.6,2.6,1.8,4.3,3.2c1.6,1.2,3,0.5,3.7-0.6
				c0.3,1.1,0.6,2.9,1.2,2.9l0,0c0.5,0,1-1.4,1.4-2.3c0.6,0.8,1.2,0.6,1.8,0.8c-0.3,0.6-4.6,9.3,0.7,17.1h0c0.3,0,0.5-0.3,0.6-0.8
				c0.6,5.1,0.3,6.2,0.3,6.2s-2.4,3-4.1,8.4c-11.7-5.1-23.4-3.5-35.9,0.5C93,136.9,83.3,136.3,83.3,136.3z M137.6,146.9
				c-1.5,4.4-3.4,8.9-6.1,12.5c-13.1-0.4-22-4.3-27.4-7.7c1.2-0.4,2.3-0.7,3.2-1.1c6.8-2.4,13-4.3,27.2-4
				C135.6,146.8,136.6,146.9,137.6,146.9z M95.4,153.5c1.1-0.2,2.3-0.3,3.6-0.6c3.7,3.7,13.9,11.9,33.3,11.9
				c25.1,0,37.9-12.1,37.9-12.1s12.8,12.1,37.9,12.1c19.4,0,29.7-8.1,33.3-11.8c1.3,0.3,2.5,0.2,3.6,0.4c3,25.2-2,61-2,61h-72.8
				H97.4C97.4,214.5,92.4,178.7,95.4,153.5z M97.4,218.8h72.8H243c0,0-2.2,27.8-14.1,51.2h-58.7h-58.7
				C99.6,246.7,97.4,218.8,97.4,218.8z M170.2,338c-43.6-31.6-56.5-63.9-56.5-63.9h56.5h56.4C226.6,274.1,213.9,306.4,170.2,338z"/>
			<path class="st0" d="M197.5,211.1c2.5-0.1,4.9-1,6.8-2.5c1.1,0.4,2.1,0.5,3.2,0.5c3.9,0,7.3-2.6,9.2-6.4c1.8,0.2,3.6,0,5.2-0.9
				c3.6-1.9,5.2-6.2,4.4-10.6c0.2-0.1,0.4-0.3,0.6-0.4c3.2-2.7,3.2-8.1-0.1-12.1c-0.1-0.1-0.2-0.2-0.3-0.3c1.1-0.8,1.9-2,1.9-3.4
				c0-2.5-3-4.5-5.7-4.5c-2.7,0-5.7,2-5.7,4.5v0c0,0.1-1.7,0.6-2.7,1.5c-1.4,1.1-1.8,2.8-2,4.6c-0.5,0.2-0.8,0.3-1.3,0.6
				c-0.7,0.3-1.2,0.8-1.7,1.3c-0.8-0.2-1.5-0.3-2.4-0.3c-1.2,0-2.3,0.3-3.4,0.7c-2-1.3-4.2-2.1-6.7-2c-7.1,0.1-12.7,6.9-12.5,15
				C184.6,204.7,190.4,211.2,197.5,211.1z"/>
			<path class="st0" d="M114,190.9c0.2,0.1,0.4,0.3,0.6,0.4c-0.8,4.4,0.9,8.7,4.4,10.6c1.6,0.9,3.4,1.1,5.2,0.9
				c1.9,3.8,5.3,6.3,9.2,6.4c1.1,0,2.2-0.1,3.2-0.5c2,1.5,4.3,2.4,6.8,2.5c7.1,0.1,12.9-6.4,13.1-14.5c0.1-8.2-5.5-14.9-12.5-15
				c-2.4-0.1-4.7,0.7-6.7,2c-1.1-0.4-2.2-0.7-3.4-0.7c-0.8,0-1.6,0.1-2.4,0.3c-0.5-0.5-1.1-1-1.8-1.3c-0.5-0.3-1-0.5-1.5-0.6
				c-0.2-1.8-0.4-3.5-1.8-4.6c-1-0.9-2.9-1.3-2.9-1.5v0c0-2.5-2.8-4.5-5.5-4.5c-2.7,0-5.2,2-5.2,4.5c0,1.4,0.6,2.6,1.7,3.4
				c-0.1,0.1-0.2,0.2-0.4,0.3C110.9,182.8,110.8,188.2,114,190.9z"/>
			<path class="st0" d="M170.7,266.9l6-9.2l-1.2-4.3l4.8,0.7c0.3,2,1.6,4.3,3.5,4.5c1.9,0.3,5.1,0,5.1,0l1.8-2.1
				c-2.2-2.1-5-3.9-5-3.9c-0.6-12.6-2.9-21.2-4.5-25.8c-1.6-4.6-3.7-4.7-7.7-4.2c-4,0.5-14.9,7.1-14.9,7.1l-0.8,6.3l3.7,0.4
				c0,0-2.1,7.1-2.9,9.7c-0.7,2.6-0.1,2.4,1.3,3.4c1.4,0.9,6.6,2.2,6.6,2.2l-1.5,6.6L170.7,266.9z"/>
			<path class="st0" d="M156.5,186.6c2.2,12.5,10.2,13.7,13.4,13.6c-0.1,4.4-0.8,7.9-0.8,7.9l4,2.7c0.4-5.3,0.3-9.4,0-12.8
				c9.5-1.4,11.5-15.6,11.5-15.6c-9.3,4.2-11.3,10.9-11.7,14c-0.7-5.1-1.9-7.8-2.5-9c6-0.7,10.7-5.8,10.7-12c0-3.5-1.5-6.6-3.9-8.8
				l2-3.7l-4.2,0.8l-1.7-3.2l-3.1,2.5l-1.9-2.5l-2,2.9l-3.7-2.1l1,3.4c-4,2-6.7,6.1-6.7,10.8c0,6,4.4,10.9,10.1,11.9
				c1.9,3,2.6,6.7,2.8,10.2C164.6,189.3,156.5,186.6,156.5,186.6z M169.6,187.3c-2.9,0-5.3-5.2-5.3-11.6c0-6.4,2.4-11.6,5.3-11.6
				c2.9,0,5.3,5.2,5.3,11.6C174.8,182.1,172.5,187.3,169.6,187.3z"/>
			<path class="st0" d="M180.1,289.7c-1.1-2.6-1.1-5.2,0-7.8h-14.5c-1.1,2.6-1.1,5.2,0,7.8H180.1z"/>
			<path class="st0" d="M165.6,307.9c-1.1,2.6-1.1,7.8,0,10.4h14.5c-1.1-2.6-1.1-7.8,0-10.4H165.6z"/>
			<polygon class="st0" points="183.6,297.5 186.8,292.3 164.6,292.3 162.2,289.7 161.1,289.7 152.9,289.7 154,292.3 156.3,292.3 
				158.6,297.5 			"/>
			<polygon class="st0" points="183.4,320.9 182.6,320.9 178.9,320.9 175.7,320.9 172.1,320.9 169.7,320.9 165.8,320.9 164.6,320.9 
				163.2,318.3 158.4,318.3 159.8,321.2 163.8,323.4 183,323.4 186.8,321.2 187.4,318.3 184.2,318.3 			"/>
		</g>
		<g>
			<g>
				<path class="st0" d="M775.3,135.9c-21-20.5-52-31.4-79.2-31.4c-68.8,0-108.6,51.6-108.2,113.6c0,53.7,31.9,105.6,108.2,105.6
					c25.2,0,48.2-6.3,71.7-26v-59.5H686v-41.9h125.4v120.3c-29.4,32.3-65.8,51.1-115.3,51.1c-107.8,0-154.3-71.7-154.3-149.7
					c0-84.7,54.1-156.8,154.3-156.8c39,0,78.4,14.7,108.6,44.4L775.3,135.9z"/>
				<path class="st0" d="M1149.8,215.3c0,79.5-48.4,152.4-150.7,152.4s-150.7-74.5-150.7-152c0-89.7,62.7-154.5,151.6-154.5
					C1100.6,61.7,1149.8,135.8,1149.8,215.3z M999.1,324.3c73.3,0,104-51.8,104-108.2c0-54.3-31.2-110.7-103.1-112
					c-68.2,0-104.8,47.6-104.8,112C896,268.4,926.3,324.3,999.1,324.3z"/>
				<path class="st0" d="M1334.4,367.7h-50.9L1157,62.2h54.8l96.9,247.3l97.4-247.3h54.3L1334.4,367.7z"/>
				<path class="st0" d="M1492.2,336.9c0,41.1-61.4,41.1-61.4,0C1430.8,296.3,1492.2,296.3,1492.2,336.9z"/>
				<path class="st0" d="M1789.8,323.8c-30.4,30-69.7,43.9-111,43.9c-107.2,0-155.4-73.9-155.8-151.5s50.2-154.9,155.8-154.9
					c39.7,0,78.1,14.8,108.1,44.7l-31.7,30.4c-21.1-20.7-49-30.4-76.4-30.4c-75.1,0-109.3,55.3-108.9,109.7
					c0.4,54,32.5,107.6,108.9,107.6c27.4,0,57.8-11.4,78.5-32.1L1789.8,323.8z"/>
				<path class="st0" d="M2130,215.8c0,79.3-48.3,151.9-150.3,151.9s-150.3-74.3-150.3-151.5c0-89.4,62.5-154,151.1-154
					C2080.9,62.6,2130,136.5,2130,215.8z M1979.7,324.5c73,0,103.7-51.6,103.7-107.8c0-54.1-31.1-110.4-102.8-111.6
					c-68,0-104.5,47.4-104.5,111.6C1876.9,268.7,1907.1,324.5,1979.7,324.5z"/>
			</g>
		</g>
		<g>
			<rect x="419.1" class="st1" width="33" height="183.9"/>
			<rect x="419.1" y="183.9" class="st2" width="33" height="122.6"/>
			<rect x="419.1" y="306.4" class="st3" width="33" height="122.6"/>
		</g>
	</g>
</g>
</svg>
