<?xml version="1.0" standalone="no"?>
<!DOCTYPE svg PUBLIC "-//W3C//DTD SVG 20010904//EN"
 "http://www.w3.org/TR/2001/REC-SVG-20010904/DTD/svg10.dtd">
<svg version="1.0" xmlns="http://www.w3.org/2000/svg"
 width="260.000000pt" height="260.000000pt" viewBox="0 0 260.000000 260.000000"
 preserveAspectRatio="xMidYMid meet">
<metadata>
Created by potrace 1.14, written by Peter Selinger 2001-2017
</metadata>
<g transform="translate(0.000000,260.000000) scale(0.100000,-0.100000)"
fill="#000000" stroke="none">
<path d="M996 2349 c3 -5 -2 -6 -10 -3 -21 8 -138 -32 -171 -58 -15 -11 -61
-43 -103 -70 -78 -51 -153 -111 -207 -163 -16 -16 -52 -47 -78 -68 -79 -64
-117 -103 -117 -121 0 -16 4 -15 35 4 19 12 39 18 45 15 6 -4 22 1 35 9 14 9
25 12 25 6 0 -7 7 -7 21 0 11 7 26 9 34 7 7 -3 22 1 34 9 11 8 21 12 21 8 0
-3 12 1 26 11 21 13 28 14 34 5 6 -10 16 -8 42 8 19 12 37 19 41 16 3 -3 17 2
31 12 15 9 29 14 33 11 3 -4 20 1 37 10 58 30 66 33 81 33 8 0 15 -8 15 -19 0
-23 45 -34 61 -15 13 16 79 19 79 5 0 -5 14 -20 31 -32 26 -18 33 -19 40 -8 6
10 9 8 9 -9 0 -13 4 -20 10 -17 16 10 24 -46 13 -99 -11 -54 -9 -66 11 -66 9
0 12 9 8 28 -2 15 -2 24 2 21 3 -3 8 -38 10 -77 l4 -70 -46 1 c-42 2 -47 -1
-50 -20 -4 -25 16 -31 36 -11 9 9 12 9 12 -2 0 -9 5 -8 16 6 8 10 13 13 9 7
-3 -7 -1 -13 4 -13 6 0 11 6 11 13 0 8 4 7 10 -3 8 -12 10 -10 10 8 0 15 4 21
12 16 8 -5 9 3 5 27 l-6 34 15 -34 c8 -18 13 -39 10 -46 -3 -8 2 -11 15 -8 15
4 16 9 8 24 -15 29 -5 23 21 -13 12 -18 17 -27 10 -21 -10 9 -17 9 -26 2 -22
-18 -117 -39 -179 -39 -80 0 -136 16 -142 41 -4 12 -12 18 -22 15 -9 -2 -31
-7 -48 -11 -35 -7 -43 -19 -18 -29 12 -4 15 -34 17 -158 l3 -153 128 -3 128
-3 -27 41 c-15 22 -30 40 -35 40 -4 0 -20 11 -35 25 -15 14 -31 25 -36 25 -5
0 -9 10 -8 23 1 12 1 24 0 27 -1 3 -4 18 -6 33 -5 43 22 45 59 5 30 -33 36
-35 81 -31 49 4 106 36 106 59 0 7 9 20 21 28 12 8 19 18 16 23 -3 5 11 8 31
7 57 -2 62 -3 60 -16 -2 -6 21 -24 51 -40 30 -15 64 -36 75 -47 27 -26 59 -18
97 22 34 35 59 31 55 -10 -2 -15 -5 -30 -6 -33 -1 -3 -1 -15 0 -28 1 -16 -5
-25 -19 -29 -12 -3 -21 -12 -21 -19 0 -12 -20 -19 -35 -11 -3 1 -14 -11 -24
-28 -18 -29 -18 -31 0 -47 15 -15 37 -18 118 -18 l99 0 7 160 c4 88 11 160 16
160 5 0 9 4 9 10 0 5 -19 13 -42 17 -46 7 -54 6 -51 -7 1 -4 -16 -15 -38 -24
-69 -28 -224 -16 -297 23 -16 9 -22 21 -23 49 l-1 37 -11 -38 -12 -39 -24 34
c-14 19 -17 27 -8 19 10 -8 18 -12 20 -10 28 48 37 71 37 89 0 21 1 22 24 6
18 -12 26 -12 30 -3 3 8 8 7 16 -5 6 -10 16 -18 22 -18 7 0 6 5 -2 15 -7 8
-10 15 -7 15 3 0 -5 24 -18 53 -26 55 -32 87 -15 87 17 0 11 39 -10 60 -11 11
-20 25 -20 32 0 8 -6 6 -17 -5 -16 -15 -19 -14 -51 19 -23 24 -37 32 -42 24
-5 -8 -9 -4 -13 11 -8 31 -1 36 23 14 11 -10 23 -16 25 -13 3 3 -15 24 -41 47
-26 22 -42 41 -37 41 6 0 16 -7 23 -15 13 -16 30 -20 30 -7 0 4 -14 16 -31 26
-17 10 -28 20 -25 23 10 10 56 -7 77 -30 17 -17 20 -18 12 -3 -6 10 -8 27 -6
37 4 13 0 19 -12 19 -14 0 -15 -3 -6 -14 10 -12 6 -12 -24 -2 -48 17 -62 32
-36 39 12 3 21 1 21 -4 0 -5 11 -3 25 3 37 17 31 28 -15 28 -39 0 -40 1 -40
35 0 50 -28 65 -118 64 -40 -1 -69 -5 -66 -10z m146 -141 c-15 -15 -16 -32 -2
-23 13 8 42 -14 35 -26 -3 -4 4 -28 16 -51 l22 -43 -26 25 c-16 15 -27 36 -27
52 0 36 -15 43 -35 16 -16 -23 -16 -23 -10 7 11 49 14 55 27 55 9 0 9 -3 0
-12z m-18 -127 c-4 -17 -9 -30 -11 -27 -3 2 -2 19 2 36 9 41 17 33 9 -9z m43
-73 c-3 -7 -5 -2 -5 12 0 14 2 19 5 13 2 -7 2 -19 0 -25z m102 -72 c-1 -20 -2
-20 -6 -1 -2 11 -11 34 -19 52 -8 17 -14 37 -14 45 0 7 9 -7 20 -31 11 -24 19
-53 19 -65z m-142 52 c-3 -7 -5 -2 -5 12 0 14 2 19 5 13 2 -7 2 -19 0 -25z
m93 -42 c0 -39 -24 -55 -40 -26 -13 24 -13 33 0 25 6 -3 10 3 10 14 0 12 7 21
15 21 10 0 15 -10 15 -34z m104 -13 c9 -18 14 -33 12 -33 -6 0 -36 55 -36 66
0 11 5 3 24 -33z m-144 -45 c0 -5 -4 -8 -10 -8 -5 0 -10 10 -10 23 0 18 2 19
10 7 5 -8 10 -18 10 -22z m119 -25 c-1 -47 -1 -47 -9 -14 -7 31 -4 61 6 61 2
0 4 -21 3 -47z m38 -5 c-3 -8 -6 -5 -6 6 -1 11 2 17 5 13 3 -3 4 -12 1 -19z
m-127 -32 c0 -12 -5 -7 -19 24 -11 24 -11 24 3 6 9 -11 16 -24 16 -30z m137
-8 c-3 -8 -6 -5 -6 6 -1 11 2 17 5 13 3 -3 4 -12 1 -19z m-40 -45 c-3 -10 -5
-4 -5 12 0 17 2 24 5 18 2 -7 2 -21 0 -30z m-55 -38 c5 -11 -2 -6 -16 10 -14
17 -25 35 -25 40 0 11 25 -20 41 -50z"/>
<path d="M1433 2348 c-32 -15 -35 -34 -22 -111 12 -66 12 -70 -9 -86 -18 -14
-19 -18 -8 -34 18 -23 10 -53 -19 -76 -23 -17 -23 -18 -4 -32 10 -7 19 -24 19
-37 0 -19 4 -23 20 -19 10 3 21 0 23 -7 3 -8 8 -8 19 2 9 7 22 10 30 7 9 -4
27 7 45 25 27 27 36 31 64 25 19 -4 46 -9 61 -12 20 -4 27 0 33 16 8 27 18 26
79 -4 27 -13 53 -22 58 -19 4 3 19 -3 33 -12 14 -9 28 -14 32 -11 3 4 18 -2
33 -13 29 -21 55 -27 46 -11 -3 5 5 8 19 7 14 0 25 -7 25 -15 0 -8 3 -11 6 -8
4 3 16 1 28 -5 11 -7 29 -11 39 -9 10 1 25 -3 33 -10 12 -10 17 -10 23 0 6 9
11 8 21 -4 7 -9 20 -13 28 -10 8 3 30 -4 50 -15 70 -42 45 12 -39 82 -29 24
-80 68 -115 98 -100 89 -144 123 -224 175 -41 26 -84 56 -95 66 -54 48 -273
85 -332 57z"/>
<path d="M1290 2126 c0 -14 5 -26 10 -26 6 0 10 9 10 19 0 11 -4 23 -10 26 -6
4 -10 -5 -10 -19z"/>
<path d="M776 1831 c-9 -9 -16 -32 -16 -49 0 -27 4 -32 23 -32 24 0 63 52 52
70 -15 24 -42 29 -59 11z"/>
<path d="M1793 1837 c-27 -12 -28 -18 -8 -57 11 -21 23 -30 40 -30 22 0 25 5
25 33 0 44 -26 69 -57 54z"/>
<path d="M1330 1742 c0 -22 4 -43 9 -46 5 -4 7 12 4 36 -8 57 -13 61 -13 10z"/>
<path d="M1520 1761 c-13 -26 4 -64 27 -59 25 5 40 35 27 56 -16 25 -41 26
-54 3z m45 -21 c0 -27 -22 -39 -31 -16 -8 22 3 49 19 43 6 -2 12 -14 12 -27z"/>
<path d="M452 1750 c17 -26 73 -28 75 -2 1 14 -7 18 -43 20 -41 1 -43 0 -32
-18z"/>
<path d="M1647 1744 c-23 -31 -16 -54 17 -54 14 0 28 -4 31 -10 3 -5 12 -10
18 -9 9 0 9 2 0 6 -21 8 -15 23 8 23 16 0 20 -5 16 -20 -3 -11 -1 -20 3 -20 5
0 11 10 13 23 4 19 4 18 6 -5 0 -16 6 -28 11 -28 15 0 12 50 -2 55 -34 11 -79
12 -85 2 -5 -7 -10 3 -13 25 l-5 36 -18 -24z m13 -26 c0 -16 -3 -19 -11 -11
-6 6 -8 16 -5 22 11 17 16 13 16 -11z"/>
<path d="M2073 1748 c2 -26 58 -24 75 2 11 18 9 19 -32 18 -36 -2 -44 -6 -43
-20z"/>
<path d="M900 1750 c-10 -7 -11 -10 -2 -10 6 0 12 -12 12 -26 0 -19 5 -25 18
-22 18 3 31 48 14 48 -6 0 -8 -9 -5 -20 3 -12 0 -20 -7 -20 -7 0 -10 6 -7 13
8 23 -7 47 -23 37z"/>
<path d="M1055 1754 c-5 -2 -28 -5 -50 -6 -32 -3 -41 -8 -43 -26 -4 -24 21
-31 34 -10 4 6 3 8 -4 4 -6 -3 -13 -2 -17 4 -3 5 -2 10 4 10 5 0 17 3 27 7 14
5 16 2 12 -15 -4 -12 -2 -22 3 -22 5 0 9 9 9 20 0 26 16 26 23 1 3 -12 13 -19
23 -19 11 1 34 -2 52 -6 31 -7 32 -6 32 24 0 26 -2 29 -14 18 -10 -9 -10 -15
-3 -20 6 -4 9 -10 5 -13 -4 -4 -14 5 -24 20 l-18 27 -19 -24 -19 -23 5 22 c5
24 -1 33 -18 27z"/>
<path d="M1440 1733 c0 -15 -2 -16 -10 -3 -13 21 -24 5 -11 -18 7 -13 7 -22
-1 -30 -9 -9 -9 -12 0 -12 7 0 12 2 12 4 0 2 7 20 15 40 9 21 11 36 5 36 -5 0
-10 -8 -10 -17z"/>
<path d="M1600 1725 c0 -14 2 -25 4 -25 2 0 6 11 8 25 3 14 1 25 -3 25 -5 0
-9 -11 -9 -25z"/>
<path d="M820 1690 c0 -22 5 -40 10 -40 6 0 10 18 10 40 0 22 -4 40 -10 40 -5
0 -10 -18 -10 -40z"/>
<path d="M885 1696 c0 -13 3 -22 8 -19 4 2 7 13 7 24 0 10 -3 19 -7 19 -5 0
-8 -11 -8 -24z"/>
<path d="M855 1670 c-3 -5 -1 -10 4 -10 6 0 11 5 11 10 0 6 -2 10 -4 10 -3 0
-8 -4 -11 -10z"/>
<path d="M688 1540 c3 -90 4 -91 37 -113 18 -12 38 -30 45 -40 13 -22 11 -21
-55 23 -74 49 -69 55 -62 -66 12 -216 75 -440 156 -557 28 -41 37 -46 113 -68
45 -13 75 -25 67 -27 -8 -1 -43 6 -77 17 l-62 19 18 -30 c9 -16 27 -38 39 -50
l22 -20 33 21 c38 24 67 49 86 73 12 15 8 25 -31 80 -75 105 -147 264 -131
289 5 8 3 9 -6 4 -10 -6 -11 -2 -6 19 5 20 3 26 -5 21 -8 -5 -9 2 -4 26 5 26
4 31 -5 19 -8 -11 -9 -3 -5 35 4 38 3 45 -5 30 -8 -15 -9 -7 -5 33 3 28 2 52
-2 52 -4 0 -19 10 -33 21 -23 18 -23 19 -2 9 12 -6 22 -7 22 -3 0 4 5 1 11 -7
11 -15 10 -10 -8 140 -3 32 -13 60 -22 68 -14 11 -14 11 4 6 18 -5 18 -4 2 6
-9 6 -21 9 -25 6 -5 -3 -28 8 -53 25 -24 16 -46 29 -49 29 -3 0 -4 -41 -2 -90z
m149 -162 c-3 -7 -5 -2 -5 12 0 14 2 19 5 13 2 -7 2 -19 0 -25z"/>
<path d="M1861 1601 c-24 -16 -49 -27 -55 -25 -26 9 -34 -14 -39 -114 -2 -56
0 -105 5 -108 5 -3 5 -11 -1 -18 -6 -7 -13 -43 -16 -81 -4 -39 -10 -72 -13
-75 -4 -3 -8 -23 -9 -45 -2 -22 -7 -41 -12 -43 -6 -2 -8 -9 -5 -16 12 -30
-115 -278 -162 -317 -8 -6 -14 -16 -14 -21 0 -12 46 -54 93 -86 l38 -25 25 24
c14 13 32 36 40 51 l14 27 -37 -13 c-46 -16 -128 -30 -98 -17 11 5 49 17 84
27 61 17 66 21 103 78 41 64 101 235 124 356 8 41 18 124 21 184 l6 110 -29
-20 c-16 -11 -47 -31 -69 -44 l-39 -24 16 23 c9 13 30 32 47 42 29 17 30 20
33 108 2 50 1 91 -2 91 -3 0 -25 -13 -49 -29z"/>
<path d="M393 1578 c10 -16 23 -22 43 -21 26 2 31 6 37 29 1 4 -20 8 -47 11
l-49 4 16 -23z"/>
<path d="M2125 1590 c-8 -13 13 -31 39 -33 19 -1 33 5 43 20 15 22 15 23 -32
21 -25 -1 -48 -5 -50 -8z"/>
<path d="M1283 1565 c-18 -19 -16 -32 5 -44 16 -9 15 -11 -6 -31 -12 -11 -28
-18 -35 -15 -6 4 -1 -2 13 -13 24 -20 46 -20 35 -1 -4 5 1 9 10 9 9 0 13 -5 9
-11 -4 -8 0 -8 15 0 26 14 27 19 4 17 -13 -1 -18 6 -18 27 1 15 -5 27 -12 27
-7 0 -13 5 -13 10 0 6 5 10 10 10 6 0 10 7 10 15 0 19 -11 19 -27 0z"/>
<path d="M1137 1463 c-3 -5 -1 -18 4 -30 10 -26 59 -33 59 -9 0 30 -51 60 -63
39z"/>
<path d="M1416 1454 c-18 -18 -21 -44 -5 -44 6 0 17 6 25 14 7 8 19 16 26 18
15 5 1 28 -17 28 -7 0 -21 -7 -29 -16z"/>
<path d="M1106 1424 c-10 -27 -7 -44 9 -44 9 0 15 9 15 24 0 30 -15 42 -24 20z"/>
<path d="M1343 1416 c-13 -6 -23 -14 -23 -19 0 -9 36 9 45 23 3 6 5 9 3 9 -2
-1 -13 -6 -25 -13z"/>
<path d="M1255 1390 c3 -4 14 -10 25 -13 11 -3 18 -2 15 3 -3 4 -14 10 -25 13
-11 3 -18 2 -15 -3z"/>
<path d="M1180 1371 c0 -6 4 -13 10 -16 6 -3 7 1 4 9 -7 18 -14 21 -14 7z"/>
<path d="M1380 1339 c0 -7 -9 -9 -21 -6 -15 4 -19 1 -17 -11 2 -9 11 -17 21
-16 9 0 33 1 52 2 19 1 35 6 35 11 0 5 -9 7 -20 4 -12 -3 -22 1 -26 11 -7 18
-24 22 -24 5z"/>
<path d="M1295 1330 c3 -5 8 -10 11 -10 2 0 4 5 4 10 0 6 -5 10 -11 10 -5 0
-7 -4 -4 -10z"/>
<path d="M1275 1234 c-44 -23 -65 -44 -65 -67 0 -15 5 -18 25 -13 24 6 25 4
25 -33 0 -33 -4 -40 -22 -43 l-23 -3 24 -14 c21 -11 25 -11 33 3 17 31 28 16
28 -40 0 -49 2 -55 15 -44 8 7 15 23 15 36 0 27 21 32 40 9 13 -16 60 -21 60
-6 0 5 -7 14 -15 21 -8 7 -15 29 -15 49 -1 52 -19 123 -37 143 -20 22 -49 23
-88 2z"/>
<path d="M990 917 c0 -30 48 -105 108 -169 l47 -51 5 59 c5 58 5 59 35 57 59
-5 160 -20 145 -22 -23 -3 20 -25 49 -25 19 -1 25 -7 28 -31 8 -63 25 -61 94
12 53 57 129 167 129 188 0 3 -144 5 -320 5 l-320 0 0 -23z m370 -22 c0 -8 5
-15 10 -15 6 0 10 -7 10 -15 0 -21 -38 -19 -43 3 -3 12 -5 11 -6 -6 -1 -21 -5
-22 -42 -18 -52 6 -56 11 -36 34 10 10 14 22 10 25 -3 4 17 7 45 7 40 0 52 -4
52 -15z m97 -114 c7 -10 9 -22 6 -25 -6 -6 -32 23 -33 37 0 14 15 7 27 -12z"/>
<path d="M1265 740 c-3 -5 -1 -10 4 -10 6 0 11 5 11 10 0 6 -2 10 -4 10 -3 0
-8 -4 -11 -10z"/>
<path d="M1300 740 c0 -5 5 -10 11 -10 5 0 7 5 4 10 -3 6 -8 10 -11 10 -2 0
-4 -4 -4 -10z"/>
<path d="M1266 692 c-3 -6 -16 -8 -27 -5 -16 4 -20 2 -17 -8 3 -9 24 -15 63
-17 67 -4 105 3 105 19 0 6 -9 9 -20 6 -11 -3 -20 0 -20 6 0 7 -4 6 -9 -2 -8
-12 -12 -12 -24 -2 -12 9 -16 9 -20 -1 -4 -10 -7 -10 -15 1 -6 8 -12 9 -16 3z"/>
<path d="M1117 645 c-10 -7 -15 -19 -12 -28 15 -38 -178 -63 -252 -32 -19 8
-47 15 -62 14 -22 -1 -17 -5 29 -27 47 -23 68 -27 140 -27 63 1 96 6 130 21
65 30 100 37 100 22 0 -7 9 -19 19 -25 28 -18 56 -81 53 -122 -6 -91 -15 -151
-22 -146 -4 3 -10 -7 -13 -20 -6 -33 13 -42 78 -40 28 1 53 3 57 4 4 0 8 16
10 34 2 27 7 32 28 32 22 0 25 4 24 38 -1 32 2 37 22 37 12 0 29 3 38 6 13 5
13 9 1 27 -12 20 -62 133 -78 180 -6 16 -12 14 -53 -17 -26 -20 -50 -36 -53
-36 -3 0 -38 24 -78 54 -92 70 -85 66 -106 51z m279 -270 c-4 -13 -25 59 -31
110 -3 27 2 17 15 -30 11 -38 18 -74 16 -80z m-39 23 c6 -64 6 -95 -1 -100 -6
-4 -11 -6 -12 -5 -7 9 -12 197 -5 197 4 0 12 -42 18 -92z"/>
<path d="M1435 636 c-33 -26 -30 -30 50 -59 120 -45 210 -46 300 -6 62 27 37
38 -32 15 -92 -31 -271 -8 -258 33 3 9 -3 21 -14 28 -14 9 -23 7 -46 -11z"/>
<path d="M1187 363 c-13 -13 -7 -21 13 -16 11 3 20 9 20 14 0 10 -24 12 -33 2z"/>
</g>
</svg>
