<?xml version="1.0" encoding="utf-8"?>
<!-- Generator: Adobe Illustrator 26.5.0, SVG Export Plug-In . SVG Version: 6.00 Build 0)  -->
<svg version="1.1" id="Capa_1" xmlns="http://www.w3.org/2000/svg" xmlns:xlink="http://www.w3.org/1999/xlink" x="0px" y="0px"
	 viewBox="0 0 33 33" style="enable-background:new 0 0 33 33;" xml:space="preserve">
<style type="text/css">
	.st0{fill:#FFFFFF;}
</style>
<g>
	<path class="st0" d="M19,14c-0.4-0.4-0.8-0.7-1.3-0.8c-0.5-0.2-1-0.2-1.6-0.2c-0.5,0.1-1,0.2-1.5,0.5c-0.5,0.3-0.8,0.6-1.1,1.1
		C13.2,14.9,13,15.4,13,16c-0.1,0.5,0,1.1,0.1,1.6c0.2,0.5,0.4,1,0.8,1.4c0.4,0.4,0.8,0.7,1.3,0.9c0.8,0.3,1.6,0.4,2.4,0.1
		c0.8-0.2,1.5-0.7,1.9-1.4c0.5-0.7,0.7-1.5,0.6-2.3C20,15.3,19.6,14.5,19,14z"/>
	<path class="st0" d="M24.9,10.2c-0.2-0.5-0.4-0.9-0.8-1.2c-0.3-0.4-0.8-0.6-1.2-0.8c-0.4-0.1-0.9-0.3-2-0.4
		c-1.1-0.1-1.5-0.1-4.3-0.1c-2.9,0-3.2,0-4.3,0.1c-1,0-1.6,0.2-2,0.4C9.7,8.3,9.3,8.5,8.9,8.9c-0.4,0.3-0.6,0.8-0.8,1.2
		c-0.1,0.4-0.3,0.9-0.4,2c-0.1,1.1-0.1,1.5-0.1,4.3c0,2.9,0,3.2,0.1,4.3c0,1,0.2,1.6,0.4,2c0.2,0.5,0.4,0.9,0.8,1.2
		c0.3,0.4,0.8,0.6,1.2,0.8c0.4,0.1,0.9,0.3,2,0.4c1.1,0.1,1.5,0.1,4.3,0.1c2.9,0,3.2,0,4.3-0.1c1,0,1.6-0.2,2-0.4
		c0.5-0.2,0.9-0.4,1.2-0.8c0.4-0.3,0.6-0.8,0.8-1.2c0.1-0.4,0.3-0.9,0.4-2c0.1-1.1,0.1-1.5,0.1-4.3c0-2.9,0-3.2-0.1-4.3
		C25.2,11.1,25,10.5,24.9,10.2z M21.6,18.6c-0.3,0.7-0.7,1.3-1.2,1.8c-1,1-2.4,1.6-3.9,1.6c-1.5,0-2.9-0.6-3.9-1.6
		c-1-1-1.6-2.4-1.6-3.9c0-1.5,0.6-2.9,1.6-3.9c0.5-0.5,1.1-0.9,1.8-1.2c0.7-0.3,1.4-0.4,2.1-0.4c0.7,0,1.4,0.1,2.1,0.4
		c0.7,0.3,1.3,0.7,1.8,1.2c0.5,0.5,0.9,1.1,1.2,1.8c0.3,0.7,0.4,1.4,0.4,2.1S21.9,17.9,21.6,18.6z M23.6,11.4
		c-0.1,0.2-0.2,0.3-0.3,0.4c-0.2,0.2-0.6,0.4-0.9,0.4c-0.3,0-0.7-0.1-0.9-0.4c-0.2-0.2-0.4-0.6-0.4-0.9c0-0.3,0.1-0.7,0.4-0.9
		c0.1-0.1,0.3-0.2,0.4-0.3s0.3-0.1,0.5-0.1c0.2,0,0.3,0,0.5,0.1c0.2,0.1,0.3,0.2,0.4,0.3c0.1,0.1,0.2,0.3,0.3,0.4
		c0.1,0.2,0.1,0.3,0.1,0.5C23.7,11,23.6,11.2,23.6,11.4z"/>
	<path class="st0" d="M16.5,0C7.4,0,0,7.4,0,16.5S7.4,33,16.5,33S33,25.6,33,16.5S25.6,0,16.5,0z M27.2,20.9
		c-0.1,1.1-0.2,1.9-0.5,2.6c-0.3,0.7-0.7,1.4-1.2,1.9c-0.5,0.5-1.2,1-1.9,1.2c-0.7,0.3-1.5,0.4-2.6,0.5c-1.1,0.1-1.5,0.1-4.4,0.1
		c-2.9,0-3.3,0-4.4-0.1c-1.1-0.1-1.9-0.2-2.6-0.5c-0.7-0.3-1.4-0.7-1.9-1.2c-0.5-0.5-1-1.2-1.2-1.9c-0.3-0.7-0.4-1.5-0.5-2.6
		c-0.1-1.1-0.1-1.5-0.1-4.4c0-2.9,0-3.3,0.1-4.4S6,10.1,6.3,9.5C6.6,8.7,7,8.1,7.6,7.5c0.5-0.5,1.2-1,1.9-1.2
		c0.7-0.3,1.5-0.4,2.6-0.5h0c1.1-0.1,1.5-0.1,4.4-0.1c2.9,0,3.3,0,4.4,0.1c1.1,0.1,1.9,0.2,2.6,0.5c0.7,0.3,1.4,0.7,1.9,1.2
		c0.5,0.5,1,1.2,1.2,1.9c0.3,0.7,0.4,1.5,0.5,2.6c0.1,1.1,0.1,1.5,0.1,4.4C27.3,19.4,27.2,19.8,27.2,20.9z"/>
</g>
</svg>
