<?xml version="1.0" encoding="utf-8"?>
<!-- Generator: Adobe Illustrator 26.5.0, SVG Export Plug-In . SVG Version: 6.00 Build 0)  -->
<svg version="1.1" id="Capa_1" xmlns="http://www.w3.org/2000/svg" xmlns:xlink="http://www.w3.org/1999/xlink" x="0px" y="0px"
	 viewBox="0 0 33 33" style="enable-background:new 0 0 33 33;" xml:space="preserve">
<style type="text/css">
	.st0{fill:#F6F6F6;}
</style>
<g>
	<path class="st0" d="M8.3,18.6h1.3v6.6h1.3v-6.6h1.3v-1.1h-4V18.6z M15,23.8c-0.2,0.3-1,0.8-1,0v-4.4h-1.1v4.8
		c0,1.4,1.4,1.1,2.1,0.3v0.6h1.1v-5.7h-1.1L15,23.8L15,23.8z M19.3,19.5c-0.7,0-1.1,0.5-1.1,0.5v-2.5H17v7.8h1.2v-0.4
		c0,0,0.4,0.5,1.1,0.5c0.6,0,1.1-0.5,1.1-1.3v-3.2C20.3,20,19.9,19.5,19.3,19.5z M19.1,23.9c0,0.4-0.3,0.6-0.7,0.5
		c-0.1,0-0.2-0.1-0.3-0.2v-3.6c0.1-0.1,0.2-0.1,0.2-0.2c0.4-0.2,0.7,0.1,0.7,0.5V23.9z M23.4,23.6c0,0.4-0.2,0.7-0.5,0.8
		c-0.3,0-0.6-0.2-0.6-0.8v-1.1h2.2V21c0-0.2,0-0.4-0.1-0.7c-0.1-0.2-0.2-0.4-0.4-0.6c-0.3-0.3-0.7-0.4-1.2-0.4
		c-0.4,0-0.8,0.1-1.2,0.4c-0.3,0.3-0.6,0.7-0.6,1.3v2.6c0,0.5,0.2,0.9,0.4,1.2c0.3,0.3,0.7,0.5,1.2,0.5c0.5,0,1.1-0.2,1.4-0.7
		c0.2-0.3,0.3-0.6,0.3-1.1v-0.3h-1.1V23.6z M22.3,21c0-0.3,0.2-0.7,0.5-0.7c0.3,0,0.6,0.3,0.6,0.7v0.6h-1.1V21z"/>
	<path class="st0" d="M16.5,0c-2.2,0-4.3,0.4-6.3,1.3c-2,0.8-3.8,2-5.4,3.6c-1.5,1.5-2.7,3.4-3.6,5.4c-0.8,2-1.3,4.1-1.3,6.3
		c0,2.2,0.4,4.3,1.3,6.3c0.8,2,2,3.8,3.6,5.4c1.5,1.5,3.4,2.7,5.4,3.6c2,0.8,4.1,1.3,6.3,1.3c4.4,0,8.6-1.7,11.7-4.8
		c3.1-3.1,4.8-7.3,4.8-11.7c0-4.4-1.7-8.6-4.8-11.7S20.9,0,16.5,0z M19.4,6.2h1.5v4.9c0,0.3,0.1,0.3,0.2,0.3c0.2,0,0.5-0.2,0.7-0.4
		V6.2h1.5v6.5h-1.5v-0.6c-0.2,0.2-0.4,0.3-0.6,0.4c-0.3,0.1-0.5,0.2-0.8,0.2c-0.1,0-0.3,0-0.4-0.1c-0.1-0.1-0.2-0.1-0.3-0.2
		c-0.2-0.2-0.2-0.5-0.2-0.9V6.2z M14.7,7.9c0-1,0.8-1.8,1.8-1.8c1,0,1.8,0.8,1.8,1.8V11c0,1-0.8,1.8-1.8,1.8c-1,0-1.8-0.8-1.8-1.8
		V7.9z M10.9,3.9l0.9,3.2l0.9-3.2h1.7L12.6,9v3.6H11V9L9.2,3.9H10.9z M25.4,26.9c-0.9,0.9-8.9,0.9-8.9,0.9s-7.9,0-8.9-0.9
		c-0.9-0.9-0.9-5.5-0.9-5.5c0,0,0-4.6,0.9-5.5C8.6,15,16.5,15,16.5,15s7.9,0,8.9,0.9c0.9,0.9,1,5.5,1,5.5
		C26.3,21.4,26.3,26,25.4,26.9z"/>
	<path class="st0" d="M16.5,11.6c0.3,0,0.5-0.2,0.5-0.5V7.7c0-0.2-0.2-0.4-0.5-0.4c-0.2,0-0.5,0.2-0.5,0.4v3.5
		C16.1,11.4,16.2,11.6,16.5,11.6z"/>
</g>
</svg>
